<svg width="308" height="464" viewBox="0 0 308 464" fill="none" xmlns="http://www.w3.org/2000/svg">
<path d="M168.875 462L173.375 460.5V306L48 25L42.875 23.5L40 22H39.875L40 24C40.0444 24.2455 40.1563 24.3414 40.375 24.5C41.2083 25 42.875 26.1 42.875 26.5C42.875 26.9 42.5417 31 42.375 33L41 43.5L40.5 44.5C40.3333 45.3333 40.775 47.1 40.375 47.5C39.975 47.9 39.875 49 39.875 49.5L39.5 59.5C39.5 59.9 38.2083 61 37.375 61.5V62.5C37.0417 63.1667 36.375 64.6 36.375 65C36.375 65.5 36.375 67 35.875 68C35.375 69 35.875 71 35.875 71.5V75.5C35.875 76.5 35.375 77 34.875 78C34.375 79 34.5 74.5 34.5 74.5C34.5 74.5 31.9102 82.7993 30 84.5C29.1496 85.2571 25.596 86.6917 24.5 87C23.3722 87.3172 23 82.5 22 81.5C21 80.5 16.375 81.5 18 81.5C19.625 81.5 20.375 83 20.375 83C20.375 83 21.3489 84.4488 21.375 85.5C21.395 86.3048 20.9578 86.6992 20.875 87.5C20.8147 88.0827 21.0602 88.4443 20.875 89C20.613 89.7859 19.375 90.5 19.375 90.5C19.375 90.5 18.156 90.8047 17.375 91C16.594 91.1953 16.016 91.0128 15.375 91.5C15.1551 91.6671 15.75 92.0001 14.875 92.0001C14 92.0001 14.375 92.0001 14.375 92.0001C14.375 92.0001 15.875 92.0001 16.375 92.0001C16.875 92.0001 19.375 92.5001 19.375 92.5001L20.375 93.0001L21.375 95.5001L20.875 99.0001C20.875 99.0001 20.875 99.5001 20.375 100.5C19.875 101.5 18.375 100.5 18.375 100.5C18.375 100.5 16.875 103 17.375 101C17.875 99.0001 15.875 104 15.875 104C15.875 104 15.875 106.438 15.875 108C16.2655 108.391 16.875 109 16.875 109C17.275 109.4 17.0417 110.167 16.875 110.5C16.875 111 16.775 112.1 16.375 112.5C15.975 112.9 15.875 115 15.875 116C15.875 116 16.0417 120 16.375 123.5C16.7083 127 16.875 134 16.875 134C16.875 134 16.0734 136.711 15.875 138.5C15.5514 141.418 16.375 146 16.375 146C16.375 146 16.875 146.5 16.875 147C16.875 147.586 16.875 148.5 16.875 148.5C16.875 149.5 16.375 149 15.875 149C15.375 149 14.875 149 13.875 148.5C12.875 148 13.375 149 12.375 149.5C11.375 150 10.875 149.5 10.875 149.5L7.875 150C7.875 150 7.375 150 6.375 149C5.375 148 5.875 149 5.375 147.5C4.875 146 5.375 146.5 5.375 146V144.5C5.375 144.5 5.375 143.586 5.375 143C5.375 142 4.375 142.5 4.375 142.5C4.375 142.5 4.375 143 4.875 143.5C5.375 144 4.875 144.5 4.375 145C3.875 145.5 3.875 146 2.875 147.5C1.875 149 1.875 148 1.375 149C0.875 150 0.875 150 1.375 151.5C1.875 153 2.375 152.5 2.875 153C3.375 153.5 4.875 153 6.375 153C7.875 153 7.875 153 8.875 152.5C9.875 152 9.875 152 10.875 152.5C11.875 153 11.875 152.5 13.875 153.5C15.875 154.5 15.375 153.5 16.375 153.5C17.375 153.5 17.875 153.5 18.375 153C18.875 152.5 19.375 152 20.375 152H22.375L25.375 154L26.875 157.5L26.375 172.5V199.5L26.875 210.5L27.375 243.5L26.875 276.5L26.375 292.5L25.875 294V306V315.5L25.375 318.5L23.375 321V326L25.375 327.5L25.875 330.5L26.375 336L25.875 343V352V361L26.375 367.5V373.5L27.375 380C27.375 380 28.5417 387.5 27.375 389C26.2083 390.5 23.675 393.7 22.875 394.5C21.875 395.5 21.375 395.5 21.375 396C21.375 396.5 18.375 396.5 17.875 396.5C17.375 396.5 14.875 397 14.875 397.5C14.875 397.9 14.2083 398.333 13.875 398.5C13.875 398.5 13.1609 399.738 12.375 400C11.8193 400.185 11.75 400.5 10.875 400C10 399.5 12.0466 400.724 12.875 401C15.4947 401.873 18.3903 397.672 19.875 400C20.5136 401.002 20.0402 401.861 20.375 403C20.8673 404.676 22.8981 405.334 22.375 407C22.1641 407.672 21.375 408.5 21.375 408.5C21.375 408.5 20.5943 409.589 19.875 410C19.0105 410.494 18.3706 410.5 17.375 410.5C16.3794 410.5 16 410 14.875 410C13.75 410 13.5 408 13.875 411C14.25 414 15.373 412.016 15.875 413C16.2409 413.717 16.375 415 16.375 415C16.375 415 16.9985 416.512 16.875 417.5C16.7984 418.113 16.375 419 16.375 419C16.875 418.333 17.775 416.9 17.375 416.5C16.875 416 18.875 414.5 18.875 414.5L20.375 413.5C20.375 413.5 20.475 412.4 20.875 412C21.275 411.6 22.0417 411.833 22.375 412L23.375 413C23.375 413 24.8229 414.896 25.875 416C26.256 416.4 26.4845 416.609 26.875 417C27.4608 417.586 27.8549 417.855 28.375 418.5C28.8169 419.048 29 419.5 29.375 420C29.75 420.5 28.5 422.5 25.5 421.5C22.5 420.5 29.8415 423.818 32.875 424.5C37.6414 425.572 44.5417 424.167 45.375 424C46.2083 423.833 47.975 423.5 48.375 423.5C48.775 423.5 49.2083 422.167 49.375 421.5C49.5417 420.833 53.375 419.5 53.375 419.5C57.0417 419.333 64.475 419 64.875 419C65.375 419 67.875 420.5 68.375 421C68.775 421.4 66.5 424.5 65.5 424.5H78.375C78.875 424.5 82.875 423.5 82.875 423C82.875 422.6 84.2083 421.167 84.875 420.5L86.875 418C87.375 417.167 88.375 415.4 88.375 415C88.375 414.5 90.875 413.5 91.375 413.5C91.775 413.5 93.5416 415.167 94.375 416C95.5416 416.833 97.975 418.6 98.375 419C98.875 419.5 102.875 419 103.375 419C103.775 419 104.542 418.333 104.875 418L107.875 415L112.375 414.5C112.875 415.167 113.975 416.6 114.375 417C114.775 417.4 117.208 417.167 118.375 417H122.875C123.275 417 124.708 417.667 125.375 418C125.875 418.667 126.875 420.1 126.875 420.5C126.875 420.9 128.208 423.333 128.875 424.5V422.5L128.375 419C128.875 418.167 130.075 416.3 130.875 415.5C131.875 414.5 130.875 415.5 133.375 416L134.875 417.5C135.375 418.667 136.775 421.2 138.375 422L141.375 423.5C143.375 424.5 141.875 423.5 143.375 424.5C144.875 425.5 143.875 424.5 145.375 423.5C146.875 422.5 147.375 423 148.875 422.5C150.375 422 150.375 422 152.375 422C154.375 422 155.875 423 156.375 423C156.775 423 157.542 424.667 157.875 425.5V432L157.375 436C157.042 439 156.475 445.2 156.875 446C157.275 446.8 159.042 447.667 159.875 448L163.375 449.5C164.375 450.333 166.375 452.1 166.375 452.5C166.375 453 166.875 455.5 166.875 456C166.875 456.4 164.542 456.167 163.375 456L165.875 458.5C166.875 459.5 165.375 461 165.875 460.5C166.275 460.1 166.375 460.333 166.375 460.5C166.875 460.5 167.975 460.7 168.375 461.5C168.568 461.887 168.536 462.211 168.413 462.462L168.875 462Z" fill="#AF2F2F"/>
<path d="M165.875 458.5C166.875 459.5 165.375 461 165.875 460.5C166.275 460.1 166.375 460.333 166.375 460.5C166.875 460.5 167.975 460.7 168.375 461.5C168.568 461.887 168.536 462.211 168.413 462.462M165.875 458.5C165.075 457.7 163.875 456.5 163.375 456M165.875 458.5L163.375 456M163.375 456C164.542 456.167 166.875 456.4 166.875 456C166.875 455.5 166.375 453 166.375 452.5C166.375 452.1 164.375 450.333 163.375 449.5L159.875 448C159.042 447.667 157.275 446.8 156.875 446C156.475 445.2 157.042 439 157.375 436L157.875 432V425.5C157.542 424.667 156.775 423 156.375 423C155.875 423 154.375 422 152.375 422C150.375 422 150.375 422 148.875 422.5C147.375 423 146.875 422.5 145.375 423.5C143.875 424.5 144.875 425.5 143.375 424.5C141.875 423.5 143.375 424.5 141.375 423.5M141.375 423.5C139.375 422.5 140.375 423 138.375 422M141.375 423.5L138.375 422M138.375 422C136.775 421.2 135.375 418.667 134.875 417.5L133.375 416C130.875 415.5 131.875 414.5 130.875 415.5C130.075 416.3 128.875 418.167 128.375 419L128.875 422.5V424.5C128.208 423.333 126.875 420.9 126.875 420.5C126.875 420.1 125.875 418.667 125.375 418C124.708 417.667 123.275 417 122.875 417M122.875 417C122.475 417 119.708 417 118.375 417M122.875 417H118.375M118.375 417C117.208 417.167 114.775 417.4 114.375 417C113.975 416.6 112.875 415.167 112.375 414.5L107.875 415L104.875 418C104.542 418.333 103.775 419 103.375 419C102.875 419 98.875 419.5 98.375 419C97.975 418.6 95.5417 416.833 94.375 416C93.5417 415.167 91.775 413.5 91.375 413.5C90.875 413.5 88.375 414.5 88.375 415C88.375 415.4 87.375 417.167 86.875 418L84.875 420.5C84.2083 421.167 82.875 422.6 82.875 423C82.875 423.5 78.875 424.5 78.375 424.5M78.375 424.5C77.975 424.5 68.1667 424.5 65.5 424.5M78.375 424.5H65.5M65.5 424.5C66.5 424.5 68.775 421.4 68.375 421C67.875 420.5 65.375 419 64.875 419C64.475 419 57.0417 419.333 53.375 419.5C53.375 419.5 49.5417 420.833 49.375 421.5C49.2083 422.167 48.775 423.5 48.375 423.5C47.975 423.5 46.2083 423.833 45.375 424C44.5417 424.167 37.6414 425.572 32.875 424.5C29.8415 423.818 22.5 420.5 25.5 421.5C28.5 422.5 29.75 420.5 29.375 420C29 419.5 28.8169 419.048 28.375 418.5C27.8549 417.855 27.4608 417.586 26.875 417C26.4845 416.609 26.256 416.4 25.875 416C24.8229 414.896 23.375 413 23.375 413L22.375 412C22.0417 411.833 21.275 411.6 20.875 412C20.475 412.4 20.375 413.5 20.375 413.5L18.875 414.5C18.875 414.5 16.875 416 17.375 416.5C17.775 416.9 16.875 418.333 16.375 419C16.375 419 16.7984 418.113 16.875 417.5C16.9985 416.512 16.375 415 16.375 415C16.375 415 16.2409 413.717 15.875 413C15.373 412.016 14.25 414 13.875 411C13.5 408 13.75 410 14.875 410C16 410 16.3794 410.5 17.375 410.5C18.3706 410.5 19.0105 410.494 19.875 410C20.5943 409.589 21.375 408.5 21.375 408.5C21.375 408.5 22.1641 407.672 22.375 407C22.8981 405.334 20.8673 404.676 20.375 403C20.0402 401.861 20.5136 401.002 19.875 400C18.3903 397.672 15.4947 401.873 12.875 401C12.0466 400.724 10 399.5 10.875 400C11.75 400.5 11.8193 400.185 12.375 400C13.1609 399.738 13.875 398.5 13.875 398.5C14.2083 398.333 14.875 397.9 14.875 397.5C14.875 397 17.375 396.5 17.875 396.5C18.375 396.5 21.375 396.5 21.375 396C21.375 395.5 21.875 395.5 22.875 394.5C23.675 393.7 26.2083 390.5 27.375 389C28.5417 387.5 27.375 380 27.375 380L26.375 373.5V367.5L25.875 361V352V343L26.375 336L25.875 330.5L25.375 327.5L23.375 326V321L25.375 318.5L25.875 315.5V306V294L26.375 292.5L26.875 276.5L27.375 243.5L26.875 210.5L26.375 199.5V172.5L26.875 157.5L25.375 154L22.375 152M22.375 152C22.0417 152 21.175 152 20.375 152M22.375 152H20.375M20.375 152C19.375 152 18.875 152.5 18.375 153C17.875 153.5 17.375 153.5 16.375 153.5C15.375 153.5 15.875 154.5 13.875 153.5C11.875 152.5 11.875 153 10.875 152.5C9.875 152 9.875 152 8.875 152.5C7.875 153 7.875 153 6.375 153C4.875 153 3.375 153.5 2.875 153C2.375 152.5 1.875 153 1.375 151.5C0.875 150 0.875 150 1.375 149C1.875 148 1.875 149 2.875 147.5C3.875 146 3.875 145.5 4.375 145C4.875 144.5 5.375 144 4.875 143.5C4.375 143 4.375 142.5 4.375 142.5C4.375 142.5 5.375 142 5.375 143M5.375 143C5.375 144 5.375 143.5 5.375 144.5M5.375 143C5.375 143.586 5.375 144.5 5.375 144.5M5.375 144.5C5.375 145.5 5.375 145.5 5.375 146M5.375 144.5V146M5.375 146C5.375 146.5 4.875 146 5.375 147.5C5.875 149 5.375 148 6.375 149C7.375 150 7.875 150 7.875 150L10.875 149.5C10.875 149.5 11.375 150 12.375 149.5C13.375 149 12.875 148 13.875 148.5C14.875 149 15.375 149 15.875 149C16.375 149 16.875 149.5 16.875 148.5M16.875 148.5C16.875 147.5 16.875 147.5 16.875 147M16.875 148.5C16.875 148.5 16.875 147.586 16.875 147M16.875 147C16.875 146.5 16.375 146 16.375 146C16.375 146 15.5514 141.418 15.875 138.5C16.0734 136.711 16.875 134 16.875 134C16.875 134 16.7083 127 16.375 123.5C16.0417 120 15.875 116 15.875 116C15.875 115 15.975 112.9 16.375 112.5C16.775 112.1 16.875 111 16.875 110.5C17.0417 110.167 17.275 109.4 16.875 109M16.875 109C16.475 108.6 16.0417 108.167 15.875 108M16.875 109C16.875 109 16.2655 108.391 15.875 108M15.875 108C15.875 106.438 15.875 104 15.875 104C15.875 104 17.875 99.0001 17.375 101C16.875 103 18.375 100.5 18.375 100.5C18.375 100.5 19.875 101.5 20.375 100.5C20.875 99.5001 20.875 99.0001 20.875 99.0001L21.375 95.5001L20.375 93.0001L19.375 92.5001C19.375 92.5001 16.875 92.0001 16.375 92.0001C15.875 92.0001 14.375 92.0001 14.375 92.0001C14.375 92.0001 14 92.0001 14.875 92.0001C15.75 92.0001 15.1551 91.6671 15.375 91.5C16.016 91.0128 16.594 91.1953 17.375 91C18.156 90.8047 19.375 90.5 19.375 90.5C19.375 90.5 20.613 89.7859 20.875 89C21.0602 88.4443 20.8147 88.0827 20.875 87.5C20.9578 86.6992 21.395 86.3048 21.375 85.5C21.3489 84.4488 20.375 83 20.375 83C20.375 83 19.625 81.5 18 81.5C16.375 81.5 21 80.5 22 81.5C23 82.5 23.3722 87.3172 24.5 87C25.596 86.6917 29.1496 85.2571 30 84.5C31.9102 82.7993 34.5 74.5 34.5 74.5C34.5 74.5 34.375 79 34.875 78C35.375 77 35.875 76.5 35.875 75.5M35.875 75.5C35.875 74.5 35.875 72 35.875 71.5M35.875 75.5V71.5M35.875 71.5C35.875 71 35.375 69 35.875 68C36.375 67 36.375 65.5 36.375 65C36.375 64.6 37.0417 63.1667 37.375 62.5V61.5C38.2083 61 39.5 59.9 39.5 59.5M39.5 59.5C39.5 59.1 39.875 52.6667 39.875 49.5M39.5 59.5L39.875 49.5M39.875 49.5C39.875 49 39.975 47.9 40.375 47.5C40.775 47.1 40.3333 45.3333 40.5 44.5L41 43.5L42.375 33C42.5417 31 42.875 26.9 42.875 26.5C42.875 26.1 41.2083 25 40.375 24.5C40.1563 24.3414 40.0444 24.2455 40 24L39.875 22H40L42.875 23.5L48 25L173.375 306V460.5L168.875 462L168.413 462.462M168.413 462.462C168.282 462.73 168.047 462.914 167.875 463L168.413 462.462Z" stroke="#AF2F2F" stroke-width="0.1"/>
<path d="M39.9999 24C39.9999 24 38.3076 12.7202 40.3749 6C40.9932 3.98992 42.3749 1 42.3749 1L41.8749 3V3.5L42.3749 4.5L43.3749 5.5L43.8749 7L44.3749 9L44.8749 11V18L45.8749 20L45.3749 18.5L45.8749 18H47.8749L49.8749 15.5L50.8749 13L53.3749 12L57.3749 11.5L61.8749 12.5H58.8749L57.3749 13L56.8749 14L57.8749 19.5V22.5V24.5L58.8749 26L59.3749 27.5L60.8749 28.5L64.3749 29.5L66.3749 27.5L68.8749 26.5L70.3749 25L71.3749 24L71.8749 22L71.3749 20.5L68.8749 19.5L68.3749 18L68.8749 13L66.3749 13.5L63.8749 12L62.8749 7L64.3749 1V4.5L67.8749 5L72.3749 7.5L73.8749 9.5L74.8749 16V22.5L73.8749 24.5L74.3749 31.5V34.5L73.8749 42L78.3749 43L78.8749 45.5L80.3749 47.5L82.3749 49L84.3749 49.5L87.3749 48.5L88.3749 46.5L88.8749 44.5L90.8749 42L94.3749 41.5L97.8749 42L95.3749 42.5L94.3749 43.5L93.8749 45.5L92.8749 47.5L93.3749 49V50.5L93.8749 52L94.8749 54L97.3749 53.5L99.8749 52L100.875 50.5L101.875 48L102.375 47V48.5L102.875 49.5L103.875 50L104.875 51.5L105.375 52.5V54L106.375 55.5L107.375 56.5L107.875 57L108.875 64L110.375 66.5V69L111.375 70.5L110.875 73L107.875 75.5L108.375 78.5V80.5L108.875 83L109.875 85.5L114.375 88L121.875 86H123.875L121.875 87L122.375 89L122.875 91.5C123.375 91.8333 124.475 92.5 124.875 92.5C125.275 92.5 127.375 91.1667 128.375 90.5L133.375 87L136.875 85.5L137.875 83.5L143.375 82L146.375 79.5L149.875 78.5L154.875 77.5L156.375 76L157.875 71L158.375 63L156.875 58.5L155.875 52L156.375 45.5L162.375 42L171.375 42.5L173.875 42H177.875L180.875 42.5L178.875 43L177.375 43.5L176.375 45L172.875 46L166.875 46.5L163.875 48L160.875 50.5L161.375 54.5L160.875 61.5L163.375 62.5H166.375L170.875 61.5L172.375 59L175.375 57L181.375 57.5L183.875 57L186.375 52.5L187.875 49.5L191.375 49L192.875 47.5L194.375 47L195.875 42L199.375 41.5H202.375L203.875 43L206.375 42.5L209.375 41.5L212.875 42L213.875 44L214.375 47L217.375 49H219.875L221.875 47.5L223.875 47V44.5L225.875 42.5H227.875L228.875 44.5L227.875 46.5L224.375 47L223.875 47.5L223.375 49.5L222.375 51V53L223.375 54.5L224.375 56C224.708 56.1667 225.475 56.6 225.875 57C226.275 57.4 227.708 61.1667 228.375 63V65.5L227.375 76C227.208 74.8333 226.875 72.4 226.875 72C226.875 71.5 227.375 69 226.875 69C226.375 69 224.875 68 224.875 67.5C224.875 67.1 223.542 66.3333 222.875 66L219.875 66.5L217.875 68L217.375 70.5L217.875 75L219.875 76.5L221.875 75L222.875 73.5L223.375 75.5L223.875 77.5L223.375 85.5L219.875 86.5L213.875 85.5L209.375 85L208.875 87L207.875 89L206.375 90L204 91.5L203 95C202.667 95.6667 201.246 99.1 201.246 99.5C201.246 99.9 200.708 98.1667 200.875 99C201.042 99.8333 202.875 100 202.875 100C202.875 100 204.361 100.67 204.875 101.5C205.2 102.025 205.279 102.39 205.375 103C205.466 103.579 205.606 103.962 205.375 104.5C205.157 105.008 204.708 105.059 204.375 105.5C203.741 106.339 203.375 108 203.375 108C203.375 108 203.023 109.031 203.375 109.5C203.637 109.849 203.98 109.814 204.375 110C205.327 110.447 208 111 206.875 111C205.75 111 206.773 111.623 206.875 112C207.234 113.333 209.014 112.732 210.375 112.5C211.666 112.28 212.672 112.105 213.375 111C213.706 110.479 213.375 110.5 213.875 109.5C214.375 108.5 215.375 106 215.375 106C215.375 106 217.708 105.167 218.875 105C220.042 104.833 219.389 102.863 220.375 102C221.032 101.425 221.555 101.299 222.375 101C223.131 100.724 223.603 100.729 224.375 100.5C224.967 100.324 225.408 100.404 225.875 100C226.628 99.3492 226.875 97.6667 226.375 97.5C225.875 97.3333 224.875 96.5 224.875 96.5C224.875 96.5 225.375 91 223.875 89.5C222.375 88 224.5 85 224.375 86.5C224.25 88 224.984 85.8905 225.375 85.5C225.765 85.1095 225.909 84.7965 226.375 84.5C227.054 84.0678 228.375 84 228.375 84C228.375 84 227.577 84.4862 227.375 85C227.08 85.7491 227.709 86.2121 227.875 87C228.159 88.3512 228.285 89.1222 228.375 90.5C228.451 91.6691 227.875 97 228.375 93.5C228.875 90 228.783 96.5906 228.375 98.5C227.973 100.381 226.508 101.082 226.375 103C226.348 103.39 226.375 104 226.375 104V106C226.375 106.5 227.375 107 227.375 107.5C227.375 107.9 227 110.5 227.875 109C228.75 107.5 225.875 113.5 228.375 114C230.875 114.5 227.248 115 226.375 115C225.502 115 224.75 112 224.375 114C224 116 223.993 111.48 222.875 110.5C222.218 109.924 221.706 109.767 220.875 109.5C219.202 108.962 218.048 108.962 216.375 109.5C215.544 109.767 215.034 109.927 214.375 110.5C213.116 111.595 214.284 113.606 212.875 114.5C212.034 115.033 211.042 114.833 210.375 115C209.708 115.167 208.375 115 208.375 115C208.375 115 207.042 113.5 206.375 113C206.375 113 205.564 112.145 204.875 112C204.493 111.92 204.253 111.902 203.875 112C202.93 112.244 203.189 113.461 202.375 114C201.385 114.656 199.375 114.5 199.375 114.5C198.708 114.5 197.075 114.7 195.875 115.5C194.675 116.3 196.333 119.167 195.5 119.5L195 123.5C195 123.9 193.333 125.167 193.5 125.5C193.5 125.5 189 137 192.375 136C195.75 135 191.817 136.669 191.375 137C190.387 137.741 189.533 137.572 188.375 138C187.388 138.364 191 140 191 140L193 142.5C193 142.5 189.765 138.419 187.375 143.5C184.984 148.581 195.5 147 191 148C186.5 149 184.716 148.257 186.5 149C187.419 149.383 186.375 153 187.375 150C188.375 147 187.526 155.497 189.875 157.5C190.411 157.957 190.542 157.833 191.375 158.5C192.208 159.167 194.375 160.5 194.375 160.5C194.375 160.5 196.508 160.5 197.875 160.5C197.727 160.276 202.875 158.731 202.875 159C202.875 159.269 204.375 158.5 204.375 158.5C204.375 158.5 202.68 159.878 202.875 161C202.995 161.694 203.875 162.5 203.875 162.5C204.042 162.667 204.475 163 204.875 163C205.275 163 206.708 163.667 207.375 164C207.875 164.167 208.975 164.6 209.375 165C209.875 165.5 212.375 165 212.375 164.5C212.375 164.1 213.375 163.333 213.875 163C213.875 163 215.25 162.5 214.375 163C213.5 163.5 213.972 164.816 213.875 166C213.779 167.168 213.567 167.87 213.875 169C214.105 169.842 214.875 171 214.875 171L215.875 173.5L216.375 175L217.375 176.5C217.375 176.5 218.736 178 219.875 178C221.013 178 221.584 177.319 222.375 176.5C223.284 175.557 223.046 174.514 223.875 173.5C224.666 172.532 225.661 172.526 226.375 171.5C227.186 170.333 227.05 169.384 227.375 168C227.603 167.031 228.25 166 227.875 165.5C227.5 165 228.21 166.096 228.375 166.5C228.896 167.779 228.794 168.622 228.875 170C228.932 170.975 228.875 172.5 228.875 172.5C228.875 172.5 228.42 174.687 227.875 176C227.54 176.807 227.171 177.179 226.875 178C226.013 180.388 226.224 182.046 226.875 184.5C227.033 185.097 226.25 186.5 227.375 186C228.5 185.5 224.75 188 225.875 188C227 188 224.512 188.008 223.875 188.5C223.184 189.034 223.5 190 223.5 190C223.5 190 231 189.5 230.5 190C230 190.5 229 191.1 229 191.5C229 191.9 233.277 190.595 234 191C234.702 191.394 236.5 190.5 235 191.5C232.475 193.183 236 194 234.5 194.5C233 195 240 196.5 241 196C242 195.5 237.875 198.5 237.875 198.5C237.875 198.5 243.703 197.243 247.5 197C250.179 196.828 254.375 197 254.375 197L259.375 198.5L265.375 199L266.375 198L265.375 203L266.375 204.5L269.375 208.5L274.875 209L276.875 211L280.875 212L282.875 211.5L281.375 213L280.875 215L279.875 217.5L279.375 220L279.875 223.5L282.875 224.5L284.375 223.5C284.875 222.833 285.975 221.5 286.375 221.5C286.775 221.5 287.875 219.5 288.375 218.5L289.375 221.5L289.875 224L289.375 225.5L286.375 228L283.375 232C282.542 232.833 280.875 234.7 280.875 235.5C280.875 236.3 278.542 240.833 277.375 243C276.208 244.667 270.75 252 274.375 248.5C278 245 288.5 240 284.5 242.5C280.5 245 278.475 255 278.875 255C279.375 255 280.875 254 280.875 253.5C280.875 253 282.375 250 282.875 249.5C283.275 249.1 284.708 245.667 285.375 244L287.375 240L290.375 234.5L290.875 231.5V231L291.375 234.5L292.375 238V251L292.875 262L294.375 268.5V276.5L296.375 279.5V282C296.208 282.667 295.875 284.1 295.875 284.5C295.875 285 295.875 286 295.375 286.5C294.975 286.9 293.542 288 292.875 288.5L290.875 289L288.875 290V292L289.375 293.5L290.375 294L291.375 294.5L291.875 299L290.875 300.5L289.875 302L290.875 304L291.375 305.5L292.375 306.5L293.375 308V312.5L293.875 313V318L294.875 320L295.375 322.5L296.375 323.5L297.875 346.5L297.375 351.5C297.042 352.167 296.375 353.6 296.375 354C296.375 354.4 295.708 356.167 295.375 357L293.875 359.5L295.875 362.5L299.875 364.5L301.375 366V370.5C301.042 372.167 300.175 375.5 299.375 375.5C298.575 375.5 297.708 374.5 297.375 374H293.375L291.875 375.5L290.375 378L289.875 379.5V383L291.375 391L293.375 392.5H296.375C296.775 392.5 298.875 392.167 299.875 392L301.875 389.5L304.375 386L304.875 385L305.375 384L305.875 386.5L306.875 391V396L307.375 403L306.875 409.5L306.375 413.5L304.375 418.5L301.375 419L298.375 417.5H296.875L294.375 418.5C293.875 418.5 292.775 418.8 292.375 420C291.975 421.2 291.208 422.833 290.875 423.5L279.875 424L274.875 422H270.875L266.375 421L264.875 419.5H261.875C261.475 419.5 259.375 420.167 258.375 420.5L255.875 423L254.875 423.5L253.375 422L252.875 419.5L249.875 418H248.5L246.375 418.5L242.5 420L240.375 423L233.875 425L228.375 425.5H224.375L223.375 426.5L222.375 430.5L226.875 437L227.875 439.5L225.875 447.5L222.375 448.5L221.875 450.5L219.875 447.5L217.875 449C217.208 449.667 215.875 451.1 215.875 451.5C215.875 452 214.375 452.5 213.875 452.5H211.875L209.375 450.5C209.875 450.333 210.475 449.7 208.875 448.5C206.875 447 206.375 446.5 205.375 446.5H200.875C198.375 446.5 196.375 447 195.875 447.5C195.375 448 194.875 448 194.375 449C193.875 450 193.375 451 192.875 451.5C192.375 452 191.875 454 191.375 452.5C190.875 451 192.375 452 190.875 450C189.375 448 190.375 447.5 188.375 447.5H185.375C182.875 447.5 183.375 447 182.375 447.5C181.375 448 180.875 447.5 180.375 448.5C179.875 449.5 179.875 449 179.375 450.5C178.875 452 178.375 451.5 178.375 453C178.375 454.5 176.875 454 178.375 455.5L180.375 457.5C181.375 458.5 180.375 458 182.375 458.5C183.975 458.9 186.708 461 187.875 462L186.875 461.5C186.375 461 184.975 460.2 183.375 461C181.775 461.8 180.375 462.333 179.875 462.5L173.375 460.5V306.5L47.4999 25C46.3773 23.9542 45.3306 23.518 39.9999 24Z" fill="#9B0000"/>
<path d="M226.375 104C226.375 104 226.348 103.39 226.375 103C226.508 101.082 227.973 100.381 228.375 98.5C228.783 96.5906 228.875 90 228.375 93.5C227.875 97 228.451 91.6691 228.375 90.5C228.285 89.1222 228.159 88.3512 227.875 87C227.709 86.2121 227.08 85.7491 227.375 85C227.577 84.4861 228.375 84 228.375 84C228.375 84 227.054 84.0678 226.375 84.5C225.909 84.7965 225.765 85.1095 225.375 85.5C224.984 85.8905 224.25 88 224.375 86.5C224.5 85 222.375 88 223.875 89.5C225.375 91 224.875 96.5 224.875 96.5C224.875 96.5 225.875 97.3333 226.375 97.5C226.875 97.6667 226.628 99.3492 225.875 100C225.408 100.404 224.967 100.324 224.375 100.5C223.603 100.729 223.131 100.724 222.375 101C221.555 101.299 221.032 101.425 220.375 102C219.389 102.863 220.042 104.833 218.875 105C217.708 105.167 215.375 106 215.375 106C215.375 106 214.375 108.5 213.875 109.5C213.375 110.5 213.706 110.479 213.375 111C212.672 112.105 211.666 112.28 210.375 112.5C209.014 112.732 207.234 113.333 206.875 112C206.773 111.623 205.75 111 206.875 111C208 111 205.327 110.447 204.375 110C203.98 109.814 203.637 109.849 203.375 109.5C203.023 109.031 203.375 108 203.375 108C203.375 108 203.741 106.339 204.375 105.5C204.708 105.059 205.157 105.008 205.375 104.5C205.606 103.962 205.466 103.579 205.375 103C205.279 102.39 205.2 102.025 204.875 101.5C204.361 100.67 202.875 100 202.875 100C202.875 100 201.042 99.8333 200.875 99C200.708 98.1667 201.246 99.9 201.246 99.5C201.246 99.1 202.667 95.6667 203 95L204 91.5L206.375 90L207.875 89L208.875 87L209.375 85L213.875 85.5L219.875 86.5L223.375 85.5L223.875 77.5L223.375 75.5L222.875 73.5L221.875 75L219.875 76.5L217.875 75L217.375 70.5L217.875 68L219.875 66.5L222.875 66C223.542 66.3333 224.875 67.1 224.875 67.5C224.875 68 226.375 69 226.875 69C227.375 69 226.875 71.5 226.875 72C226.875 72.4 227.208 74.8333 227.375 76L228.375 65.5V63C227.708 61.1667 226.275 57.4 225.875 57C225.475 56.6 224.708 56.1667 224.375 56L223.375 54.5L222.375 53V51L223.375 49.5L223.875 47.5L224.375 47L227.875 46.5L228.875 44.5L227.875 42.5H225.875L223.875 44.5V47L221.875 47.5L219.875 49H217.375L214.375 47L213.875 44L212.875 42L209.375 41.5L206.375 42.5L203.875 43L202.375 41.5H199.375L195.875 42L194.375 47L192.875 47.5L191.375 49L187.875 49.5L186.375 52.5L183.875 57L181.375 57.5L175.375 57L172.375 59L170.875 61.5L166.375 62.5H163.375L160.875 61.5L161.375 54.5L160.875 50.5L163.875 48L166.875 46.5L172.875 46L176.375 45L177.375 43.5L178.875 43L180.875 42.5L177.875 42H173.875L171.375 42.5L162.375 42L156.375 45.5L155.875 52L156.875 58.5L158.375 63L157.875 71L156.375 76L154.875 77.5L149.875 78.5L146.375 79.5L143.375 82L137.875 83.5L136.875 85.5L133.375 87L128.375 90.5C127.375 91.1667 125.275 92.5 124.875 92.5C124.475 92.5 123.375 91.8333 122.875 91.5L122.375 89L121.875 87L123.875 86H121.875L114.375 88L109.875 85.5L108.875 83L108.375 80.5V78.5L107.875 75.5L110.875 73L111.375 70.5L110.375 69V66.5L108.875 64L107.875 57L107.375 56.5L106.375 55.5L105.375 54V52.5L104.875 51.5L103.875 50L102.875 49.5L102.375 48.5V47L101.875 48L100.875 50.5L99.8749 52L97.3749 53.5L94.8749 54L93.8749 52L93.3749 50.5V49L92.8749 47.5L93.8749 45.5L94.3749 43.5L95.3749 42.5L97.8749 42L94.3749 41.5L90.8749 42L88.8749 44.5L88.3749 46.5L87.3749 48.5L84.3749 49.5L82.3749 49L80.3749 47.5L78.8749 45.5L78.3749 43L73.8749 42L74.3749 34.5V31.5L73.8749 24.5L74.8749 22.5V16L73.8749 9.5L72.3749 7.5L67.8749 5L64.3749 4.5V1L62.8749 7L63.8749 12L66.3749 13.5L68.8749 13L68.3749 18L68.8749 19.5L71.3749 20.5L71.8749 22L71.3749 24L70.3749 25L68.8749 26.5L66.3749 27.5L64.3749 29.5L60.8749 28.5L59.3749 27.5L58.8749 26L57.8749 24.5V22.5V19.5L56.8749 14L57.3749 13L58.8749 12.5H61.8749L57.3749 11.5L53.3749 12L50.8749 13L49.8749 15.5L47.8749 18H45.8749L45.3749 18.5L45.8749 20L44.8749 18V11L44.3749 9L43.8749 7L43.3749 5.5L42.3749 4.5L41.8749 3.5V3L42.3749 1C42.3749 1 40.9932 3.98992 40.3749 6C38.3076 12.7202 39.9999 24 39.9999 24C45.3306 23.518 46.3773 23.9542 47.4999 25L173.375 306.5V460.5L179.875 462.5C180.375 462.333 181.775 461.8 183.375 461C184.975 460.2 186.375 461 186.875 461.5L187.875 462C186.708 461 183.975 458.9 182.375 458.5C180.375 458 181.375 458.5 180.375 457.5M226.375 104C226.375 104.5 226.375 105.6 226.375 106M226.375 104V106M226.375 106C226.375 106.5 227.375 107 227.375 107.5C227.375 107.9 227 110.5 227.875 109C228.75 107.5 225.875 113.5 228.375 114C230.875 114.5 227.248 115 226.375 115C225.502 115 224.75 112 224.375 114C224 116 223.993 111.48 222.875 110.5C222.218 109.924 221.706 109.767 220.875 109.5C219.202 108.962 218.048 108.962 216.375 109.5C215.544 109.767 215.034 109.927 214.375 110.5C213.116 111.595 214.284 113.606 212.875 114.5C212.034 115.033 211.042 114.833 210.375 115C209.708 115.167 208.375 115 208.375 115C208.375 115 207.042 113.5 206.375 113C206.375 113 205.564 112.145 204.875 112C204.493 111.92 204.253 111.902 203.875 112C202.93 112.244 203.189 113.461 202.375 114C201.385 114.656 199.375 114.5 199.375 114.5C198.708 114.5 197.075 114.7 195.875 115.5C194.675 116.3 196.333 119.167 195.5 119.5M195.5 119.5C195.5 121 195 123.1 195 123.5M195.5 119.5L195 123.5M195 123.5C195 123.9 193.333 125.167 193.5 125.5C193.5 125.5 189 137 192.375 136C195.75 135 191.817 136.669 191.375 137C190.387 137.741 189.533 137.572 188.375 138C187.388 138.364 191 140 191 140L193 142.5C193 142.5 189.765 138.419 187.375 143.5C184.984 148.581 195.5 147 191 148C186.5 149 184.716 148.257 186.5 149C187.419 149.383 186.375 153 187.375 150C188.375 147 187.526 155.497 189.875 157.5C190.411 157.957 190.542 157.833 191.375 158.5C192.208 159.167 194.375 160.5 194.375 160.5M194.375 160.5C194.375 160.5 196.875 160.5 197.875 160.5M194.375 160.5C194.375 160.5 196.508 160.5 197.875 160.5M197.875 160.5C197.727 160.276 202.875 158.731 202.875 159C202.875 159.269 204.375 158.5 204.375 158.5C204.375 158.5 202.68 159.878 202.875 161C202.995 161.694 203.875 162.5 203.875 162.5C204.042 162.667 204.475 163 204.875 163C205.275 163 206.708 163.667 207.375 164C207.875 164.167 208.975 164.6 209.375 165C209.875 165.5 212.375 165 212.375 164.5C212.375 164.1 213.375 163.333 213.875 163C213.875 163 215.25 162.5 214.375 163C213.5 163.5 213.972 164.816 213.875 166C213.779 167.168 213.567 167.87 213.875 169C214.105 169.842 214.875 171 214.875 171L215.875 173.5L216.375 175L217.375 176.5C217.375 176.5 218.736 178 219.875 178C221.013 178 221.584 177.319 222.375 176.5C223.284 175.557 223.046 174.514 223.875 173.5C224.666 172.532 225.661 172.526 226.375 171.5C227.186 170.333 227.05 169.384 227.375 168C227.603 167.031 228.25 166 227.875 165.5C227.5 165 228.21 166.096 228.375 166.5C228.896 167.779 228.794 168.622 228.875 170C228.932 170.975 228.875 172.5 228.875 172.5C228.875 172.5 228.42 174.687 227.875 176C227.54 176.807 227.171 177.179 226.875 178C226.013 180.388 226.224 182.046 226.875 184.5C227.033 185.097 226.25 186.5 227.375 186C228.5 185.5 224.75 188 225.875 188C227 188 224.512 188.008 223.875 188.5C223.184 189.034 223.5 190 223.5 190C223.5 190 231 189.5 230.5 190C230 190.5 229 191.1 229 191.5C229 191.9 233.277 190.595 234 191C234.702 191.394 236.5 190.5 235 191.5C232.475 193.183 236 194 234.5 194.5C233 195 240 196.5 241 196C242 195.5 237.875 198.5 237.875 198.5C237.875 198.5 243.703 197.243 247.5 197C250.179 196.828 254.375 197 254.375 197L259.375 198.5L265.375 199L266.375 198L265.375 203L266.375 204.5L269.375 208.5L274.875 209L276.875 211L280.875 212L282.875 211.5L281.375 213L280.875 215L279.875 217.5L279.375 220L279.875 223.5L282.875 224.5L284.375 223.5C284.875 222.833 285.975 221.5 286.375 221.5C286.775 221.5 287.875 219.5 288.375 218.5L289.375 221.5L289.875 224L289.375 225.5L286.375 228L283.375 232C282.542 232.833 280.875 234.7 280.875 235.5C280.875 236.3 278.542 240.833 277.375 243C276.208 244.667 270.75 252 274.375 248.5C278 245 288.5 240 284.5 242.5C280.5 245 278.475 255 278.875 255C279.375 255 280.875 254 280.875 253.5C280.875 253 282.375 250 282.875 249.5C283.275 249.1 284.708 245.667 285.375 244L287.375 240L290.375 234.5L290.875 231.5V231L291.375 234.5L292.375 238V251L292.875 262L294.375 268.5V276.5L296.375 279.5V282C296.208 282.667 295.875 284.1 295.875 284.5C295.875 285 295.875 286 295.375 286.5C294.975 286.9 293.542 288 292.875 288.5L290.875 289L288.875 290V292L289.375 293.5L290.375 294L291.375 294.5L291.875 299L290.875 300.5L289.875 302L290.875 304L291.375 305.5L292.375 306.5L293.375 308V312.5L293.875 313V318L294.875 320L295.375 322.5L296.375 323.5L297.875 346.5L297.375 351.5C297.042 352.167 296.375 353.6 296.375 354C296.375 354.4 295.708 356.167 295.375 357L293.875 359.5L295.875 362.5L299.875 364.5L301.375 366V370.5C301.042 372.167 300.175 375.5 299.375 375.5C298.575 375.5 297.708 374.5 297.375 374H293.375L291.875 375.5L290.375 378L289.875 379.5V383L291.375 391L293.375 392.5M293.375 392.5C294.208 392.5 295.975 392.5 296.375 392.5M293.375 392.5H296.375M296.375 392.5C296.775 392.5 298.875 392.167 299.875 392L301.875 389.5L304.375 386L304.875 385L305.375 384L305.875 386.5L306.875 391V396L307.375 403L306.875 409.5L306.375 413.5L304.375 418.5L301.375 419L298.375 417.5H296.875L294.375 418.5C293.875 418.5 292.775 418.8 292.375 420C291.975 421.2 291.208 422.833 290.875 423.5L279.875 424L274.875 422H270.875L266.375 421L264.875 419.5M264.875 419.5C264.042 419.5 262.275 419.5 261.875 419.5M264.875 419.5H261.875M261.875 419.5C261.475 419.5 259.375 420.167 258.375 420.5L255.875 423L254.875 423.5L253.375 422L252.875 419.5L249.875 418H248.5L246.375 418.5L242.5 420L240.375 423L233.875 425L228.375 425.5H224.375L223.375 426.5L222.375 430.5L226.875 437L227.875 439.5L225.875 447.5L222.375 448.5L221.875 450.5L219.875 447.5L217.875 449C217.208 449.667 215.875 451.1 215.875 451.5C215.875 452 214.375 452.5 213.875 452.5M213.875 452.5C213.475 452.5 212.375 452.5 211.875 452.5M213.875 452.5H211.875M211.875 452.5L209.375 450.5C209.875 450.333 210.475 449.7 208.875 448.5C206.875 447 206.375 446.5 205.375 446.5M205.375 446.5C204.375 446.5 203.375 446.5 200.875 446.5M205.375 446.5H200.875M200.875 446.5C198.375 446.5 196.375 447 195.875 447.5C195.375 448 194.875 448 194.375 449C193.875 450 193.375 451 192.875 451.5C192.375 452 191.875 454 191.375 452.5C190.875 451 192.375 452 190.875 450C189.375 448 190.375 447.5 188.375 447.5M188.375 447.5C186.375 447.5 187.875 447.5 185.375 447.5M188.375 447.5H185.375M185.375 447.5C182.875 447.5 183.375 447 182.375 447.5C181.375 448 180.875 447.5 180.375 448.5C179.875 449.5 179.875 449 179.375 450.5C178.875 452 178.375 451.5 178.375 453C178.375 454.5 176.875 454 178.375 455.5M178.375 455.5C179.875 457 179.375 456.5 180.375 457.5M178.375 455.5L180.375 457.5" stroke="#9B0000" stroke-width="0.1"/>
<path d="M34.5 138.5L30.5 398L165.5 172.5L80.5 248L34.5 138.5Z" fill="#C4C4C4" stroke="#C4C4C4"/>
<path d="M44.5 22L33 135L81 247.5L166 172.5L27 404.5H183.5L165.5 441.5L291 404.5L277 229.5L179.5 159.5L216.5 50L112.5 106L44.5 22Z" fill="white" stroke="white"/>
</svg>
