<svg width="309" height="473" viewBox="0 0 309 473" fill="none" xmlns="http://www.w3.org/2000/svg">
<path d="M42 38.5V10H56.5V12.5H47V27H51.5V22H58.5V34H61V36.5H71V34H73V29.5H71V22H66.5V10H76V51H80.5V55.5H89.5V51H99.5V53.5H97.5V55.5H95.5V61H102.5V55.5H104.5V59H107V65.5H109.5V73.5H112V78H114.5V80H109.5V92.5H112V94H124V99.5H126V97H134V94H138.5V92.5H143.5V90H145.5V88H158V51H182V55.5H163V70.5H172.5V65.5H187V61H183V59H180V56.5H196V51H216V55.5H225.5V51H231V56.5H227L225.5 58V65.5H231V85H228.5V82.5H225.5V75.5H221.5V85H223V82.5H224L225.5 84V94L214 95V97H211.5V99.5H204.5V109H208.5V114H206.5V119H208.5V120L214 121V119H216V114H221.5V109H228.5V107H225.5V95H231V123H225.5V119H218L216 121V123L209.5 124L208.5 122H206.5V123L194.5 124V145H191.5V148H187V157.5H191.5V167.5H206.5V172H216V179.5H218V183.5H223V181.5H225.5H227.5L228.5 174.5L225.5 172H221.5V167.5H225.5V170L231 176.5V196.5H225.5V203.5H242.5V205.5H269.5V215.5H278.5V220.5H286.5V223H284.5V227.5H282V233H286.5V230H288V227.5H291V230H293.5V235H288V237H286.5V239.5H284.5V245H282V251.5H279.5V254H277V261.5H283V257.5L286.5 256.5V249.5H288V245H291V239.5H293.5V276H296V285.5H298.5V295.5H296V298H291V302.5H293.5V315H296V327H298.5V373H303.5V385H293.5V399H303.5V394.5H308V428.5H293.5V433.5H269.5V430.5L259.5 431.5V433.5H255V428.5H245.5V433.5H243.5V436H225.5V442.5H230.5V458H225.5V460H224V458H221.5V460H218.5V462H211V458H196.5V462H192V458H182.5V467.5H192V472.5H170.5V469.5H167.5V467.5H165.5V465H167.5V460.5H165.5V458H161V455H158.5V433.5H141.5V431.5H139.5V428.5H136V426.5H132V433.5H127V426.5H115V424H110V426.5H107.5V428.5H98V426.5H96V424H91.5V426.5H88.5V431.5H86V433.5H71V428.5H51.5V433.5H32V428.5H29.5V426.5H27V424H25V421.5H22.5V424H20.5V428.5H18V421.5H15.5V419H22.5V409.5H13V406.5H15.5V405H22.5V403H25V399.5H27V336.5H25V330H27V162.5H4V155.5H5.5V153.5H8V157.5H17.5V109H22.5V102H15V99.5H12V97H15V98L16.5 99.5H20V97H22.5V92.5H20V90H29.5V88H37V70.5H39.5V38.5H42Z" fill="#9B0000" stroke="#9B0000"/>
<path d="M38 2H55.5V6H44V19H47.5L51.5 15H55.5V28.5L65.5 33V28.5H68V22L65.5 15V2L71 9.5L77.5 45L83 50.5L88.5 45H103L93 50.5L96 56.5L100 50.5L112 75L103 78.5L121.5 90L124.5 94L157.5 78.5V45H178L174 50.5L163 53.5V61H174H183L187.5 50.5L193 53.5V45H204L206 48L214 45V48H222.5L230 45V48L222.5 53.5L224.5 59L233 61L230 82L222.5 71.5L219 75L222.5 82L224.5 90L228 92L230 115H224.5L222.5 110.5H214L222.5 102.5L219 87H209.5V94H204L206 102.5V110.5L199.5 115L193 122V139.5H187.5V152.5L193 162.5H204V167.5H214V177L224.5 170.5L219 159.5H222.5L230 173.5L228 189.5L224.5 198L253.5 201H269V212H278.5L281.5 217L278.5 227L288 221.5L295.5 227L288 232.5L278.5 242.5V256.5L295.5 236.5V265.5L304.5 287L295.5 292.5L288 299H295.5L291 307.5L295.5 312L300 333V360L295.5 366L304.5 372.5L300 379.5H291V386.5L295.5 394.5L300 397.5L308 386.5V425H295.5L291 429H269L264.5 425L259 429L253.5 435L248.5 425L242.5 429H230L224.5 435L230 441.5L228 453V469L219 463L221.5 455.5L214 463L209.5 472.5V455.5L193 453V460L187.5 453H179.5V460L187.5 466H174L163 463L167.5 460L157.5 447V429H141.5L133 420L130 429L121.5 420L112 425V420L103 425H96L91.5 420L80.5 429H68V425H49V429H29.5L24.5 420L14 429V420L11.5 417.5H19V408L11.5 403L24.5 394.5V333L21.5 331.5V327L24.5 322.5V159.5L23 155L1 159.5V152.5L5 146.5V155L14 149.5L19 102.5L21.5 99.5L14 94L19 90V82L29.5 87L41 33L38 2Z" fill="#AF2F2F" stroke="#AF2F2F"/>
<path d="M32.5 138.5L28.5 398L163.5 172.5L78.5 248L32.5 138.5Z" fill="#C4C4C4" stroke="#C4C4C4"/>
<path d="M42.5 22L31 135L79 247.5L164 172.5L25 404.5H181.5L163.5 441.5L289 404.5L275 229.5L177.5 159.5L214.5 50L110.5 106L42.5 22Z" fill="white" stroke="white"/>
</svg>
